<?xml version="1.0" encoding="UTF-8" standalone="no"?>
<!DOCTYPE svg PUBLIC "-//W3C//DTD SVG 1.1//EN" "http://www.w3.org/Graphics/SVG/1.1/DTD/svg11.dtd">
<svg width="100%" height="100%" viewBox="0 0 15 27" version="1.1" xmlns="http://www.w3.org/2000/svg" xmlns:xlink="http://www.w3.org/1999/xlink" xml:space="preserve" xmlns:serif="http://www.serif.com/" style="fill-rule:evenodd;clip-rule:evenodd;stroke-linejoin:round;stroke-miterlimit:2;">
    <g transform="matrix(1,0,0,1,-11.000079,0.000013)">
        <g transform="matrix(0.124514,0,0,0.124514,0.002257,0)">
            <path d="M185.432,0.063L96.44,17.501C94.982,17.787 93.894,19.032 93.806,20.515L88.332,112.971C88.328,113.035 88.326,113.1 88.326,113.165C88.326,114.957 89.801,116.433 91.594,116.433C91.842,116.433 92.088,116.405 92.329,116.349L117.106,110.631C119.424,110.096 121.519,112.138 121.042,114.469L113.681,150.516C113.186,152.942 115.463,155.016 117.832,154.296L133.136,149.647C135.508,148.927 137.788,151.007 137.286,153.435L125.588,210.056C124.856,213.598 129.567,215.529 131.531,212.493L132.844,210.465L205.36,65.745C206.575,63.322 204.48,60.559 201.82,61.073L176.315,65.995C173.919,66.457 171.88,64.225 172.556,61.881L189.202,4.176C189.879,1.826 187.832,-0.407 185.433,0.063L185.432,0.063Z" style="fill:url(#_Linear1);fill-rule:nonzero;"/>
        </g>
    </g>
    <defs>
        <linearGradient id="_Linear1" x1="0" y1="0" x2="1" y2="0" gradientUnits="userSpaceOnUse" gradientTransform="matrix(8.146693,185.725972,-185.725972,8.146693,139.24426,4.797763)"><stop offset="0" style="stop-color:rgb(255,234,131);stop-opacity:1"/><stop offset="0.08" style="stop-color:rgb(255,221,53);stop-opacity:1"/><stop offset="1" style="stop-color:rgb(255,168,0);stop-opacity:1"/></linearGradient>
    </defs>
</svg>
